<?xml version="1.0" encoding="UTF-8" standalone="no"?>
<!-- Created with Inkscape (http://www.inkscape.org/) -->

<svg
   xmlns:dc="http://purl.org/dc/elements/1.1/"
   xmlns:cc="http://creativecommons.org/ns#"
   xmlns:rdf="http://www.w3.org/1999/02/22-rdf-syntax-ns#"
   xmlns:svg="http://www.w3.org/2000/svg"
   xmlns="http://www.w3.org/2000/svg"
   xmlns:sodipodi="http://sodipodi.sourceforge.net/DTD/sodipodi-0.dtd"
   xmlns:inkscape="http://www.inkscape.org/namespaces/inkscape"
   width="32px"
   height="32px"
   id="svg4173"
   version="1.1"
   inkscape:version="0.47 r22583"
   sodipodi:docname="ground.svg"
   inkscape:export-filename="/home/chipx86/src/pyweek/forever_end/foreverend/data/ground.png"
   inkscape:export-xdpi="90"
   inkscape:export-ydpi="90">
  <defs
     id="defs4175">
    <inkscape:perspective
       sodipodi:type="inkscape:persp3d"
       inkscape:vp_x="0 : 16 : 1"
       inkscape:vp_y="0 : 1000 : 0"
       inkscape:vp_z="32 : 16 : 1"
       inkscape:persp3d-origin="16 : 10.666667 : 1"
       id="perspective4181" />
  </defs>
  <sodipodi:namedview
     id="base"
     pagecolor="#ffffff"
     bordercolor="#666666"
     borderopacity="1.0"
     inkscape:pageopacity="0.0"
     inkscape:pageshadow="2"
     inkscape:zoom="16"
     inkscape:cx="18.826272"
     inkscape:cy="17.945083"
     inkscape:current-layer="layer1"
     showgrid="false"
     inkscape:grid-bbox="true"
     inkscape:document-units="px"
     inkscape:window-width="1230"
     inkscape:window-height="930"
     inkscape:window-x="203"
     inkscape:window-y="84"
     inkscape:window-maximized="0">
    <inkscape:grid
       type="xygrid"
       id="grid4697" />
  </sodipodi:namedview>
  <metadata
     id="metadata4178">
    <rdf:RDF>
      <cc:Work
         rdf:about="">
        <dc:format>image/svg+xml</dc:format>
        <dc:type
           rdf:resource="http://purl.org/dc/dcmitype/StillImage" />
        <dc:title></dc:title>
      </cc:Work>
    </rdf:RDF>
  </metadata>
  <g
     id="layer1"
     inkscape:label="Layer 1"
     inkscape:groupmode="layer">
    <rect
       style="fill:#c57800;fill-opacity:1;stroke:none"
       id="rect4183"
       width="32"
       height="32"
       x="0"
       y="0" />
    <path
       sodipodi:nodetypes="cccccccccccccccc"
       id="path4700"
       d="m 0,2 32,0 0,10 -2.428833,0.535363 -2.718193,-1.479228 -3.160957,1.423583 -2.48491,-1.746184 L 17.875,12.6875 15.6486,11.218734 12.580806,13.135723 10.09283,10.718369 7.4375,12.5 4.8642767,10.762563 C 4.0353699,10.762563 2.7887868,12.625 2.125,12.625 L 0,12 0,2 z"
       style="fill:#000000;fill-opacity:1;stroke:none" />
    <path
       style="fill:#0fda0f;fill-opacity:1;stroke:none"
       d="M 0,0 32,0 32,10 29.571167,10.535363 26.852974,9.0561352 23.692017,10.479718 21.207107,8.733534 17.875,10.6875 15.6486,9.2187343 12.580806,11.135723 10.09283,8.718369 7.4375,10.5 4.8642767,8.7625631 C 4.0353699,8.7625631 2.7887868,10.625 2.125,10.625 L 0,10 0,0 z"
       id="rect4695"
       sodipodi:nodetypes="cccccccccccccccc" />
    <rect
       y="0"
       x="0"
       height="1"
       width="32"
       id="rect4723"
       style="fill:#000000;fill-opacity:0.58095241;stroke:none" />
  </g>
</svg>
